<svg width="176" height="150" viewBox="0 0 176 150" fill="none" xmlns="http://www.w3.org/2000/svg">
<path d="M85.7299 67.0558C85.5742 67.1189 85.4185 67.1777 85.2713 67.2534C85.124 67.329 85.0314 67.3795 84.9178 67.4425C84.8042 67.5056 84.6317 67.6065 84.4971 67.6948C84.3625 67.783 84.2741 67.8503 84.1647 67.9344C84.0553 68.0184 83.908 68.1362 83.7818 68.2454C83.6556 68.3547 83.5799 68.4262 83.4831 68.5229C83.3863 68.6196 83.2475 68.7625 83.1339 68.8886C83.0203 69.0147 82.9529 69.103 82.8646 69.2123C82.7762 69.3216 82.6542 69.4897 82.5532 69.6327C82.4522 69.7756 82.3976 69.8597 82.326 69.9774L82.2755 70.0614C82.1956 70.196 82.1199 70.3347 82.0483 70.4818C82.0231 70.5238 82.002 70.5659 81.981 70.6079C81.9221 70.7214 81.8632 70.8391 81.8127 70.9568C81.7622 71.0745 81.7201 71.167 81.6781 71.2721C81.636 71.3772 81.6192 71.4024 81.5939 71.4739L81.5182 71.663C81.4677 71.7976 81.4214 71.9363 81.3793 72.0834C81.3373 72.2305 81.2994 72.3272 81.2657 72.4491C81.2026 72.6719 81.1395 72.8989 81.089 73.1343C81.0497 73.2913 81.0161 73.451 80.988 73.6135C80.988 73.7018 80.9544 73.7859 80.9375 73.8784C80.9207 73.9709 80.9039 74.0675 80.8913 74.1684C80.8534 74.4038 80.8281 74.6519 80.8029 74.8999C80.8029 75.0176 80.7734 75.1311 80.765 75.2488C80.765 75.295 80.765 75.3371 80.765 75.3833C80.7356 75.8037 80.7188 76.1988 80.7188 76.6234C80.7309 78.335 80.9356 80.0397 81.3288 81.7056C82.894 88.5787 87.3666 95.6829 92.8364 99.7479C93.4772 100.232 94.1459 100.679 94.8392 101.085L95.1253 101.24C95.2852 101.328 95.445 101.421 95.6049 101.501L95.971 101.682L96.3665 101.871L96.7662 102.043L97.1154 102.186C97.2543 102.241 97.3889 102.291 97.5362 102.337L97.8686 102.451L98.2683 102.577L98.6217 102.669L98.9836 102.762L99.4632 102.854L99.6862 102.896L99.8756 102.917L102.745 101.27C100.967 100.985 99.2599 100.361 97.7171 99.4326C89.8911 94.9262 83.5799 83.9546 83.5799 74.9587C83.5799 71.3057 84.6233 68.5397 86.3821 66.833L86.1044 66.9129C85.9739 66.9549 85.8519 67.0054 85.7299 67.0558Z" fill="#263238"/>
<path d="M88.2637 64.0122C87.8267 64.1646 87.4042 64.356 87.0014 64.5839L84.1445 66.2318C85.4022 65.5209 86.8188 65.1378 88.2637 65.1178V64.0122Z" fill="#37474F"/>
<path d="M99.6916 102.896L99.4686 102.854L98.9889 102.762L98.6271 102.669L98.3915 102.611L98.2737 102.577L97.8866 102.451L97.5542 102.337L97.1334 102.186L96.7842 102.043L96.3845 101.871L95.989 101.682L95.6229 101.501C95.463 101.421 95.2989 101.328 95.1349 101.236C95.0465 101.185 94.9539 101.143 94.8614 101.089C94.1931 100.696 93.547 100.266 92.9259 99.8025C91.1447 98.4766 89.5299 96.941 88.1167 95.2289C86.8961 93.7594 85.8011 92.1901 84.8433 90.5375C83.2612 87.8279 82.0833 84.9022 81.3468 81.8527L81.3216 81.7098C80.9289 80.0467 80.7242 78.3447 80.7115 76.636C80.7115 76.2408 80.7115 75.8583 80.7536 75.4799C80.7536 75.4253 80.7536 75.3706 80.7536 75.316C80.7515 75.2782 80.7515 75.2403 80.7536 75.2025C80.7788 74.8872 80.8125 74.5761 80.8588 74.2735L80.884 74.0801C80.884 73.9792 80.9219 73.8867 80.9387 73.7859C80.9555 73.685 80.9934 73.5084 81.0229 73.3655C81.0523 73.2226 81.0818 73.0712 81.1154 72.9451C81.1491 72.819 81.1996 72.6425 81.2459 72.4911C81.2459 72.4323 81.2753 72.3734 81.2921 72.3188C81.309 72.2641 81.2921 72.2725 81.3132 72.2515C81.351 72.1296 81.3889 72.0035 81.431 71.8816C81.4731 71.7597 81.5404 71.5957 81.5993 71.4612C81.6582 71.3267 81.7423 71.0955 81.8265 70.9189C81.9106 70.7424 81.9485 70.6751 82.0116 70.5532L82.0874 70.4103C82.1547 70.2842 82.2262 70.1623 82.2977 70.0404C82.3693 69.9185 82.4366 69.826 82.5081 69.7209L82.6049 69.5822C82.6554 69.5023 82.7101 69.4266 82.7648 69.3552L82.8952 69.1912C82.9331 69.145 82.9667 69.0945 83.0088 69.0483L83.2402 68.7835L83.3202 68.7036C83.4169 68.6027 83.5137 68.5018 83.6189 68.4051C83.6652 68.3631 83.7199 68.3253 83.7662 68.2874C83.8924 68.1781 84.0186 68.073 84.149 67.9764C84.2795 67.8797 84.3678 67.8124 84.4814 67.7368C84.595 67.6611 84.7591 67.5644 84.9022 67.4845C85.0452 67.4047 85.1336 67.3542 85.2556 67.2954C85.3776 67.2365 85.5586 67.1608 85.7142 67.0978C85.8699 67.0347 85.9583 66.9969 86.0845 66.9549C86.2107 66.9128 86.2738 66.896 86.3706 66.8666L86.5852 66.8119C86.7114 66.7825 86.8376 66.7447 86.9681 66.7195C87.0985 66.6942 87.3383 66.6606 87.5235 66.6396C87.7086 66.6186 87.7717 66.6018 87.9021 66.5933C88.0326 66.5849 88.1293 66.5933 88.2472 66.5933V65.1809C86.8023 65.2009 85.3857 65.584 84.128 66.2949C83.9513 66.4 83.7788 66.5093 83.6063 66.627L83.5179 66.6858C83.0262 67.0359 82.5734 67.4375 82.1673 67.8839L82.0285 68.0352C81.9064 68.1739 81.7886 68.3169 81.6708 68.4556L81.5698 68.6027C81.375 68.865 81.1938 69.1372 81.0271 69.4182C80.9682 69.5233 80.9051 69.6284 80.8461 69.7377C80.7872 69.847 80.6989 70.0151 80.6274 70.1581C80.5558 70.301 80.4927 70.4481 80.4254 70.5784C80.3581 70.7088 80.2992 70.8727 80.2403 71.024C80.1477 71.2594 80.0635 71.5033 79.9836 71.7513C79.9499 71.869 79.9121 71.9909 79.8784 72.1128C79.8195 72.323 79.7648 72.5332 79.7101 72.756C79.6849 72.8652 79.6596 72.9703 79.6386 73.0796C79.5685 73.3991 79.5096 73.727 79.4619 74.0633C79.4619 74.1474 79.4408 74.2314 79.4324 74.3113C79.3946 74.5972 79.3651 74.883 79.3441 75.1521C79.3441 75.2571 79.3441 75.3622 79.323 75.4673C79.2978 75.8415 79.2852 76.2198 79.2852 76.6065C79.3195 79.1003 79.7178 81.5757 80.4675 83.9546C80.8524 85.2146 81.3104 86.4512 81.8391 87.658C82.1196 88.269 82.4001 88.8729 82.6806 89.4698C83.591 91.2645 84.6479 92.9812 85.8405 94.6025C88.2093 97.8183 91.0662 100.547 94.1377 102.316C95.3572 103.042 96.6653 103.607 98.0296 103.998L99.8641 102.947L99.6916 102.896Z" fill="#455A64"/>
<path d="M114.086 88.6245C114.086 80.4021 108.31 70.4057 101.182 66.2945C97.6057 64.2347 94.3743 64.0456 92.0391 65.4033C91.328 65.8237 86.5693 68.5603 85.8414 68.9681C83.4937 70.309 82.0547 73.2012 82.0547 77.325C82.0547 85.5474 87.8316 95.5438 94.9591 99.655C98.5271 101.715 101.758 101.904 104.094 100.55C104.809 100.13 109.605 97.3808 110.325 96.9646C112.643 95.6194 114.086 92.7315 114.086 88.6245Z" fill="#CDA503"/>
<path opacity="0.3" d="M114.086 88.6245C114.086 80.4021 108.31 70.4057 101.182 66.2945C97.6057 64.2347 94.3743 64.0456 92.0391 65.4033C91.328 65.8237 86.5693 68.5603 85.8414 68.9681C83.4937 70.309 82.0547 73.2012 82.0547 77.325C82.0547 85.5474 87.8316 95.5438 94.9591 99.655C98.5271 101.715 101.758 101.904 104.094 100.55C104.809 100.13 109.605 97.3808 110.325 96.9646C112.643 95.6194 114.086 92.7315 114.086 88.6245Z" fill="black"/>
<path d="M94.9416 69.8807C102.065 73.9919 107.842 83.9924 107.842 92.2106C107.842 100.429 102.094 103.767 94.9416 99.6554C87.7888 95.5442 82.0371 85.5478 82.0371 77.3254C82.0371 69.103 87.8224 65.7695 94.9416 69.8807Z" fill="#27DEBF"/>
<path d="M100.411 102.98H100.474C100.693 102.98 100.895 103.006 101.122 103.01H101.227C101.537 103.011 101.846 102.993 102.153 102.955H102.186C102.444 102.921 102.7 102.874 102.952 102.812C103.057 102.791 103.167 102.766 103.272 102.737C103.47 102.682 103.667 102.619 103.861 102.547C104.055 102.476 104.151 102.43 104.282 102.362C104.353 102.333 104.416 102.299 104.484 102.266C105.103 101.953 105.67 101.547 106.167 101.063C105.047 101.372 103.874 101.442 102.725 101.269L99.8555 102.917C100.057 102.943 100.234 102.968 100.411 102.98Z" fill="#263238"/>
<path d="M98.4274 67.4423C98.5006 68.5445 98.9768 69.5813 99.7654 70.3555C105.913 76.001 110.406 85.1651 110.406 92.9293C110.406 98.579 108.033 102.598 104.154 103.947C104.65 103.786 105.125 103.569 105.572 103.3L108.429 101.652C111.466 99.9032 113.276 96.1871 113.276 91.273C113.276 83.513 108.778 74.3448 102.631 68.7034C101.844 67.9277 101.369 66.8918 101.293 65.7903V54.3521L98.4274 56.0083L97.0137 55.1928L98.4274 56.0083V67.4423Z" fill="#37474F"/>
<path d="M99.7654 70.3553C98.9768 69.5811 98.5006 68.5443 98.4274 67.4422V56.0081L97.0137 55.1926V68.1274C97.0174 68.2998 97.0371 68.4715 97.0726 68.6402L97.0978 68.7663C97.138 68.9461 97.1901 69.123 97.2535 69.296C97.3561 69.564 97.4814 69.8228 97.628 70.0695L97.7458 70.2418C97.8552 70.4158 97.979 70.5804 98.116 70.7337C98.1994 70.8295 98.2894 70.9194 98.3853 71.0027C98.7261 71.3012 99.0585 71.6122 99.3867 71.9275L99.6476 72.1839C99.9337 72.4698 100.216 72.7598 100.489 73.0625L100.615 73.1928C100.927 73.5333 101.23 73.8822 101.533 74.2437L101.76 74.5212C102.008 74.8238 102.252 75.1349 102.488 75.446L102.66 75.673C102.942 76.0471 103.216 76.4338 103.481 76.8206L103.666 77.1022C103.885 77.4259 104.087 77.758 104.301 78.0901L104.478 78.376C104.726 78.7963 104.962 79.1915 105.193 79.6076L105.324 79.8556C105.513 80.2046 105.698 80.5577 105.875 80.915L106.039 81.2471C106.246 81.6702 106.444 82.099 106.632 82.5334C106.653 82.5922 106.678 82.6469 106.699 82.7057C106.863 83.0883 107.019 83.475 107.171 83.866C107.213 83.9837 107.259 84.0972 107.301 84.2149C107.465 84.6352 107.621 85.1019 107.76 85.5432C107.899 85.9846 108.029 86.4344 108.147 86.88L108.222 87.1659C108.332 87.5862 108.433 88.0318 108.521 88.4648L108.559 88.6834C108.638 89.0813 108.705 89.4765 108.761 89.8688C108.761 89.9403 108.782 90.016 108.795 90.0874C108.849 90.5078 108.896 90.9282 108.925 91.3485C108.925 91.441 108.925 91.5335 108.946 91.626C108.971 92.0463 108.992 92.4919 108.992 92.9165C108.992 95.4387 108.492 97.5406 107.596 99.1842C107.403 99.5361 107.185 99.8733 106.943 100.193C106.826 100.349 106.704 100.5 106.577 100.643C106.451 100.786 106.321 100.92 106.186 101.063C105.69 101.547 105.122 101.953 104.503 102.265C104.44 102.299 104.373 102.333 104.301 102.362C104.162 102.429 104.019 102.493 103.88 102.547C103.741 102.602 103.518 102.673 103.338 102.724H103.291C103.186 102.753 103.081 102.778 102.972 102.799L102.782 102.85C102.593 102.888 102.399 102.917 102.206 102.942H102.172C101.865 102.98 101.556 102.998 101.246 102.997H101.007C100.838 102.997 100.666 102.997 100.493 102.968H100.409C100.232 102.968 100.056 102.934 99.8748 102.909L98.0403 103.96C99.0582 104.253 100.111 104.406 101.171 104.414C101.314 104.414 101.453 104.414 101.591 104.393C101.73 104.372 101.974 104.393 102.151 104.363L102.475 104.317C102.681 104.287 102.896 104.258 103.077 104.22C103.173 104.22 103.27 104.178 103.367 104.153L103.485 104.119C103.666 104.073 103.847 104.031 104.023 103.972L104.15 103.934C108.029 102.598 110.402 98.5663 110.402 92.9165C110.406 85.1649 105.913 76.0009 99.7654 70.3553Z" fill="#455A64"/>
<path d="M91.9941 66.8204L92.053 66.7952C92.0874 66.7826 92.1199 66.7657 92.1498 66.7447L95.0193 65.0885C95.204 64.9709 95.3534 64.8058 95.4519 64.6105C95.5504 64.4151 95.5943 64.1969 95.5789 63.9787V51.0439L92.7136 52.7002V65.6349C92.734 65.8831 92.6755 66.1313 92.5463 66.3442C92.417 66.5571 92.2238 66.7238 91.9941 66.8204Z" fill="#37474F"/>
<path d="M88.5372 65.1137C89.226 65.1165 89.9132 65.1812 90.5904 65.307C90.6738 65.3297 90.7614 65.3324 90.846 65.3147C90.9306 65.2971 91.0098 65.2596 91.0771 65.2055C91.1445 65.1513 91.198 65.082 91.2333 65.0032C91.2687 64.9244 91.2848 64.8384 91.2805 64.7522V63.4658C90.2513 63.4779 89.2315 63.6626 88.2637 64.0123V65.1305C88.3562 65.1263 88.4446 65.1137 88.5372 65.1137Z" fill="#37474F"/>
<path d="M88.9008 66.5344C89.2416 66.5471 89.5815 66.5779 89.919 66.6269C90.2472 66.6774 90.5838 66.7446 90.9204 66.8287H90.9835H91.0172C91.1251 66.8547 91.2348 66.873 91.3454 66.8834H91.3748C91.4658 66.8919 91.5574 66.8919 91.6483 66.8834H91.6988C91.7845 66.8693 91.869 66.8482 91.9513 66.8203C92.1809 66.7237 92.3742 66.557 92.5034 66.3441C92.6326 66.1312 92.6912 65.883 92.6707 65.6349V52.7001L91.257 51.8594V64.7311C91.2614 64.8173 91.2452 64.9033 91.2099 64.9821C91.1746 65.0609 91.121 65.1303 91.0537 65.1844C90.9864 65.2385 90.9072 65.276 90.8226 65.2936C90.738 65.3113 90.6504 65.3086 90.567 65.286C89.8898 65.1601 89.2026 65.0954 88.5137 65.0926C88.4212 65.0926 88.3328 65.0926 88.2402 65.0926V66.505C88.3412 66.505 88.438 66.505 88.539 66.505C88.6399 66.505 88.7872 66.5302 88.9008 66.5344Z" fill="#455A64"/>
<path d="M112.768 96.4436C112.768 84.295 104.231 69.54 93.6995 63.4489C88.4401 60.4138 83.6814 60.128 80.2354 62.1121L74.4753 65.433C71.0336 67.4256 68.9004 71.6839 68.9004 77.754C68.9004 89.9027 77.4374 104.658 87.9646 110.749C93.224 113.78 97.9827 114.07 101.429 112.086L107.185 108.756C110.635 106.776 112.768 102.514 112.768 96.4436Z" fill="#D4AA00"/>
<path opacity="0.1" d="M101.448 112.082C108.894 107.787 108.894 93.859 101.447 80.9731C94.0008 68.0873 81.9281 61.123 74.4821 65.418C67.0361 69.713 67.0365 83.6409 74.483 96.5268C81.9294 109.413 94.0021 116.377 101.448 112.082Z" fill="black"/>
<path d="M107.043 99.752C107.043 87.6034 98.5062 72.8484 87.9748 66.7573C82.707 63.718 77.9399 63.4364 74.4897 65.4331L71.637 67.0768C68.1784 69.0651 66.041 73.3318 66.041 79.4104C66.041 91.559 74.5781 106.314 85.1053 112.405C90.3731 115.44 95.1402 115.726 98.5903 113.733L101.46 112.077C104.906 110.089 107.043 105.814 107.043 99.752Z" fill="#F0F0F0"/>
<path d="M85.1053 68.401C95.624 74.4754 104.174 89.2471 104.174 101.396C104.174 113.544 95.6367 118.467 85.1053 112.393C74.5738 106.318 66.041 91.5465 66.041 79.3979C66.041 67.2492 74.5781 62.3393 85.1053 68.401Z" fill="#E0E0E0"/>
<path d="M105.574 101.408C105.574 88.831 96.7045 73.4834 85.7986 67.1947C82.5882 65.3408 79.4873 64.4034 76.5757 64.4034C74.585 64.3758 72.6234 64.8825 70.8956 65.8705C69.9447 66.4254 66.099 68.6239 65.1229 69.1914C61.2099 71.4824 58.8789 76.2998 58.8789 82.7231C58.8789 95.3005 67.7483 110.648 78.6542 116.937C81.8645 118.791 84.9655 119.728 87.8771 119.728C89.8811 119.756 91.8554 119.242 93.5909 118.24C94.525 117.689 98.3243 115.52 99.2921 114.961C103.23 112.679 105.574 107.853 105.574 101.408Z" fill="#455A64"/>
<path d="M87.8771 119.728C84.9697 119.728 81.8645 118.791 78.6542 116.937C67.7526 110.631 58.8789 95.3005 58.8789 82.723C58.8789 73.601 63.5745 67.7117 70.8409 67.7117C73.7525 67.7117 76.8534 68.6491 80.0637 70.5029C90.9654 76.8084 99.8391 92.1393 99.8391 104.717C99.8391 113.835 95.1435 119.728 87.8771 119.728Z" fill="#37474F"/>
<path d="M83.6127 106.709C81.9737 106.66 80.377 106.178 78.9844 105.314C73.5399 102.173 69.1094 94.5102 69.1094 88.2256C69.1094 83.673 71.4572 80.7305 75.084 80.7305C76.7152 80.7832 78.304 81.263 79.6913 82.1219C85.1358 85.2662 89.5663 92.9296 89.5663 99.2141C89.5873 103.767 87.2395 106.709 83.6127 106.709Z" fill="#263238"/>
<path d="M59.2946 128.093C59.2946 115.516 50.4252 100.168 39.5193 93.8751C36.3089 92.0255 33.208 91.0881 30.3006 91.0881C28.3098 91.0595 26.348 91.5662 24.6205 92.5552C23.6696 93.11 19.8197 95.3086 18.8478 95.8761C14.9306 98.1671 12.5996 102.984 12.5996 109.404C12.5996 121.981 21.469 137.333 32.3749 143.622C35.5853 145.475 38.6862 146.413 41.5936 146.413C43.6007 146.437 45.5768 145.917 47.3116 144.908C48.2499 144.357 52.0493 142.188 53.0128 141.629C56.951 139.363 59.2946 134.537 59.2946 128.093Z" fill="#455A64"/>
<path d="M41.5955 146.413C38.6881 146.413 35.5872 145.475 32.3769 143.622C21.471 137.316 12.6016 121.981 12.6016 109.404C12.6016 100.286 17.2971 94.3965 24.5677 94.3965C27.4751 94.3965 30.5761 95.3339 33.7864 97.1835C44.6881 103.489 53.5617 118.824 53.5617 131.402C53.5575 140.519 48.8619 146.413 41.5955 146.413Z" fill="#37474F"/>
<path d="M52.1491 131.402C52.1491 119.253 43.6121 104.498 33.0807 98.4069C27.8129 95.3676 23.0458 95.0817 19.6167 97.0785L16.764 98.7263C13.3096 100.715 11.168 104.977 11.168 111.056C11.168 123.204 19.705 137.959 30.2364 144.05C35.5042 147.09 40.2671 147.371 43.7005 145.383L46.57 143.727C50.0159 141.734 52.1491 137.472 52.1491 131.402Z" fill="#F0F0F0"/>
<path d="M30.2149 100.059C40.7337 106.133 49.2834 120.905 49.2834 133.054C49.2834 145.202 40.7463 150.125 30.2149 144.067C19.6835 138.01 11.1465 123.221 11.1465 111.073C11.1465 98.9239 19.6835 93.9846 30.2149 100.059Z" fill="#E0E0E0"/>
<path d="M49.2838 133.054C49.2838 120.905 40.7468 106.15 30.2154 100.059C24.956 97.0239 20.1973 96.7381 16.7514 98.7222L10.9913 102.031C7.54532 104.023 5.41211 108.286 5.41211 114.352C5.41211 126.5 13.9492 141.255 24.4806 147.346C29.7357 150.381 34.4944 150.667 37.9446 148.683L43.6963 145.366C47.1464 143.391 49.2838 139.128 49.2838 133.054Z" fill="#D4AA00"/>
<path opacity="0.1" d="M24.4806 103.367C34.9993 109.441 43.5448 124.213 43.5448 136.362C43.5448 148.51 35.012 153.433 24.4806 147.359C13.9492 141.284 5.41211 126.513 5.41211 114.364C5.41211 102.215 13.9492 97.2927 24.4806 103.367Z" fill="black"/>
<path d="M10.7904 110.282C10.6348 110.341 10.4791 110.404 10.3276 110.476C10.1761 110.547 10.092 110.602 9.97839 110.669C9.86479 110.736 9.69228 110.833 9.55764 110.921C9.423 111.009 9.33464 111.077 9.22525 111.161C9.11585 111.245 8.96859 111.358 8.84237 111.468L8.53943 111.749C8.42162 111.867 8.30801 111.989 8.19441 112.115C8.08081 112.241 8.00928 112.329 7.92092 112.439C7.83256 112.548 7.71475 112.716 7.61377 112.859C7.51279 113.002 7.45809 113.09 7.38657 113.208L7.33608 113.292C7.25613 113.427 7.1804 113.561 7.10466 113.712L7.04155 113.838C6.98265 113.952 6.92374 114.065 6.86904 114.183C6.81435 114.301 6.78068 114.393 6.73861 114.498C6.69653 114.604 6.6797 114.633 6.65446 114.7L6.57872 114.894C6.52823 115.028 6.48195 115.167 6.43567 115.314C6.38939 115.461 6.35993 115.558 6.32627 115.68C6.25895 115.901 6.20005 116.128 6.14956 116.361C6.11169 116.52 6.07803 116.68 6.04858 116.844L5.99809 117.105C5.99809 117.201 5.96443 117.298 5.9518 117.395C5.91394 117.634 5.88869 117.878 5.86345 118.126C5.86345 118.244 5.83399 118.357 5.82558 118.479C5.82558 118.521 5.82558 118.568 5.82558 118.614C5.79613 119.013 5.7793 119.425 5.7793 119.854C5.79147 121.566 5.99612 123.27 6.38939 124.936C7.963 131.822 12.4398 138.926 17.918 142.991C18.5608 143.473 19.2293 143.919 19.9207 144.328L20.2069 144.483L20.6865 144.744L21.0526 144.925L21.4481 145.11C21.5827 145.173 21.7131 145.227 21.8688 145.282C22.0245 145.337 22.1002 145.383 22.2181 145.425L22.6388 145.581L22.967 145.694L23.3877 145.816L23.7412 145.913L24.103 146.001C24.2629 146.039 24.4228 146.068 24.5827 146.098L24.8015 146.14L24.9908 146.161L27.7972 144.488C26.0112 144.207 24.2965 143.583 22.7482 142.651C14.9348 138.144 8.60254 127.194 8.60254 118.177C8.60254 114.528 9.646 111.762 11.4047 110.055C11.3122 110.08 11.2154 110.101 11.127 110.131L10.7904 110.282Z" fill="#263238"/>
<path d="M13.3164 107.239C12.8802 107.392 12.4579 107.581 12.0542 107.806L9.19727 109.454C10.4565 108.749 11.873 108.372 13.3164 108.357V107.239Z" fill="#37474F"/>
<path d="M24.7326 146.123L24.5138 146.081C24.3539 146.052 24.1983 146.022 24.0342 145.984C23.8701 145.946 23.7943 145.925 23.6723 145.896L23.4325 145.837L23.3189 145.799L22.8981 145.677L22.5615 145.564L22.1408 145.408C22.023 145.366 21.9094 145.316 21.7916 145.265L21.3708 145.097L20.9753 144.908L20.6092 144.727L20.1212 144.463L19.8477 144.315C19.1804 143.921 18.5343 143.492 17.9122 143.029C16.131 141.703 14.5162 140.168 13.103 138.455C11.8878 136.986 10.7984 135.416 9.84643 133.764C8.258 131.047 7.0758 128.113 6.33736 125.054C6.33736 125.008 6.33736 124.962 6.30791 124.911C5.93106 123.248 5.74055 121.547 5.7399 119.842C5.7399 119.446 5.7399 119.064 5.78197 118.686C5.78197 118.631 5.78197 118.572 5.78197 118.517C5.78004 118.48 5.78004 118.442 5.78197 118.404C5.80722 118.089 5.84088 117.782 5.88716 117.479L5.9124 117.286C5.9124 117.185 5.95027 117.088 5.9671 116.991C5.98393 116.895 6.0218 116.714 6.04704 116.571C6.07229 116.428 6.10595 116.277 6.14382 116.151C6.18168 116.025 6.22797 115.844 6.27004 115.693L6.32053 115.524C6.32245 115.502 6.32245 115.48 6.32053 115.457C6.36261 115.331 6.40048 115.209 6.44255 115.087C6.48463 114.965 6.55195 114.797 6.60664 114.667C6.66134 114.537 6.75391 114.301 6.83806 114.129C6.92221 113.956 6.96007 113.885 7.02319 113.763L7.09892 113.616C7.16624 113.494 7.23777 113.368 7.3093 113.25C7.38083 113.132 7.44815 113.036 7.51967 112.931L7.61224 112.788L7.84365 112.54L7.96988 112.38C8.01195 112.334 8.04561 112.283 8.08769 112.237C8.12976 112.191 8.23916 112.061 8.3191 111.972L8.39484 111.892L8.69357 111.594C8.73985 111.552 8.79455 111.518 8.84083 111.476C8.96706 111.367 9.09328 111.266 9.22372 111.169C9.35415 111.073 9.44251 111.005 9.55611 110.93C9.66971 110.854 9.83381 110.757 9.97686 110.678C10.1199 110.598 10.2083 110.543 10.3261 110.484C10.4439 110.425 10.6332 110.35 10.7889 110.291L11.1592 110.144L11.4453 110.06L11.6304 110.018C11.7566 109.984 11.8829 109.95 12.0133 109.925C12.1437 109.9 12.3794 109.866 12.5687 109.845C12.6949 109.845 12.8169 109.807 12.9474 109.795C13.0778 109.782 13.1746 109.795 13.2924 109.795V108.382C11.8475 108.402 10.4309 108.785 9.17323 109.496C8.9923 109.597 8.8198 109.711 8.65149 109.824L8.56314 109.887C8.06997 110.237 7.61577 110.639 7.20832 111.085L7.07368 111.237C6.95166 111.375 6.83385 111.518 6.71604 111.657C6.68238 111.703 6.64872 111.754 6.61085 111.8C6.42151 112.061 6.24059 112.334 6.07229 112.641L5.89137 112.956C5.81563 113.095 5.7441 113.238 5.67258 113.376C5.60105 113.515 5.53794 113.666 5.47062 113.818C5.4033 113.969 5.34439 114.108 5.28548 114.263C5.19292 114.499 5.10877 114.738 5.02883 114.986C4.99096 115.104 4.9573 115.226 4.92364 115.348C4.86473 115.562 4.80583 115.768 4.75534 115.995L4.6796 116.319C4.61228 116.638 4.55338 116.966 4.5071 117.303C4.5071 117.382 4.5071 117.471 4.47764 117.551C4.43977 117.832 4.41032 118.118 4.38929 118.391L4.36404 118.707C4.343 119.081 4.32617 119.459 4.32617 119.846C4.35597 122.335 4.75004 124.806 5.49586 127.181C5.88081 128.44 6.33881 129.675 6.86751 130.88C7.13399 131.489 7.41449 132.093 7.70901 132.692C8.61749 134.488 9.67444 136.205 10.8689 137.825C13.2377 141.041 16.0946 143.769 19.1661 145.543C20.3874 146.265 21.695 146.83 23.058 147.224L24.8925 146.169L24.7326 146.123Z" fill="#455A64"/>
<path d="M37.3853 132.806C37.3853 124.588 31.6084 114.587 24.4809 110.476C20.9045 108.416 17.6731 108.227 15.3379 109.589L9.14028 113.149C6.79249 114.49 5.35352 117.387 5.35352 121.506C5.35352 129.729 11.1304 139.725 18.258 143.836C21.8259 145.896 25.0573 146.089 27.3925 144.732L33.6238 141.15C35.9421 139.801 37.3853 136.921 37.3853 132.806Z" fill="#CDA503"/>
<path opacity="0.3" d="M37.3853 132.806C37.3853 124.588 31.6084 114.587 24.4809 110.476C20.9045 108.416 17.6731 108.227 15.3379 109.589L9.14028 113.149C6.79249 114.49 5.35352 117.387 5.35352 121.506C5.35352 129.729 11.1304 139.725 18.258 143.836C21.8259 145.896 25.0573 146.089 27.3925 144.732L33.6238 141.15C35.9421 139.801 37.3853 136.921 37.3853 132.806Z" fill="black"/>
<path d="M27.3721 144.737C32.4112 141.831 32.4112 132.405 27.3722 123.685C22.3332 114.965 14.1632 110.253 9.12411 113.16C4.085 116.066 4.08495 125.492 9.12399 134.211C14.163 142.931 22.333 147.644 27.3721 144.737Z" fill="#D4AA00"/>
<path d="M24.9487 142.138C28.8768 139.883 28.8908 132.543 24.9799 125.744C21.0691 118.946 14.7143 115.263 10.7862 117.518C6.85817 119.774 6.84421 127.113 10.7551 133.912C14.6659 140.711 21.0207 144.394 24.9487 142.138Z" fill="#263238"/>
<path d="M23.2177 123.608L17.2935 129.518L10.2207 117.273C12.0257 116.222 14.5334 116.373 17.2935 117.966C19.6438 119.409 21.6625 121.331 23.2177 123.608Z" fill="#455A64"/>
<path d="M27.313 135.303C27.313 138.489 26.1896 140.734 24.3678 141.768L17.2949 129.518L23.2191 123.608C25.6973 127.143 27.313 131.456 27.313 135.303Z" fill="#37474F"/>
<path d="M24.3779 141.768C22.5728 142.806 20.0483 142.672 17.2966 141.078C14.9423 139.64 12.9249 137.714 11.3809 135.429L17.2966 129.518L24.3779 141.768Z" fill="#455A64"/>
<path d="M17.2948 129.519L11.3791 135.429C8.89243 131.898 7.28516 127.572 7.28516 123.751C7.28516 120.556 8.40856 118.32 10.2304 117.273L17.2948 129.519Z" fill="#37474F"/>
<path d="M25.4567 146.207H25.5156C25.7344 146.207 25.9363 146.232 26.1635 146.232H26.2687C26.5843 146.232 26.8914 146.211 27.1944 146.178H27.228C27.4858 146.147 27.7415 146.1 27.9938 146.039C28.099 146.014 28.2084 145.993 28.3136 145.963C28.5113 145.909 28.7091 145.841 28.8984 145.77C29.0878 145.699 29.193 145.652 29.3192 145.589L29.5211 145.488C30.1408 145.178 30.7086 144.774 31.2041 144.29C30.0837 144.597 28.9111 144.666 27.7624 144.492L24.8887 146.144C25.0948 146.169 25.28 146.195 25.4567 146.207Z" fill="#263238"/>
<path d="M23.477 110.669C23.551 111.771 24.027 112.807 24.815 113.582C30.9579 119.223 35.4558 128.392 35.4558 136.152C35.4558 141.806 33.0827 145.82 29.2034 147.169C29.6994 147.011 30.1752 146.795 30.6213 146.526L33.4782 144.878C36.5161 143.13 38.3253 139.414 38.3253 134.5C38.3253 126.74 33.8275 117.571 27.6803 111.93C26.8992 111.152 26.4293 110.116 26.3591 109.017V97.5786L23.4938 99.2349L22.0801 98.4194L23.4938 99.2349L23.477 110.669Z" fill="#37474F"/>
<path d="M24.8123 113.582C24.0243 112.807 23.5483 111.771 23.4743 110.669V99.2349L22.0605 98.4194V111.354C22.0643 111.525 22.084 111.695 22.1195 111.863L22.1447 111.993C22.1849 112.173 22.2369 112.35 22.3004 112.523C22.4021 112.79 22.5274 113.047 22.6748 113.292C22.7127 113.355 22.7506 113.41 22.7927 113.469C22.902 113.642 23.0244 113.806 23.1587 113.96C23.2445 114.055 23.3359 114.145 23.4322 114.229C23.773 114.524 24.1054 114.835 24.4336 115.154L24.6945 115.411C24.9806 115.697 25.2625 115.987 25.536 116.285L25.6622 116.42C25.9735 116.76 26.2765 117.109 26.5752 117.466C26.6551 117.559 26.7309 117.656 26.8066 117.748C27.0549 118.051 27.2989 118.358 27.5345 118.673C27.5934 118.748 27.6523 118.82 27.707 118.896C27.9889 119.274 28.2582 119.656 28.5485 120.047L28.7337 120.329C28.9525 120.653 29.1544 120.981 29.369 121.313L29.5457 121.603C29.794 122.023 30.0296 122.418 30.261 122.83L30.3914 123.082C30.5808 123.431 30.7659 123.784 30.9426 124.142L31.1067 124.47C31.3129 124.89 31.5275 125.31 31.6958 125.76C31.721 125.815 31.7462 125.874 31.7673 125.928C31.9328 126.315 32.0885 126.702 32.2343 127.089C32.2806 127.206 32.3269 127.324 32.369 127.442C32.5288 127.883 32.6887 128.324 32.8276 128.77C32.9664 129.216 33.0926 129.661 33.2147 130.107C33.2399 130.199 33.2652 130.296 33.2862 130.393C33.4012 130.824 33.5022 131.257 33.5891 131.692L33.627 131.91C33.7069 132.305 33.7701 132.7 33.829 133.096C33.829 133.167 33.829 133.239 33.8584 133.31C33.9173 133.73 33.9594 134.151 33.9931 134.571C33.9931 134.664 33.9931 134.756 33.9931 134.849C34.0183 135.269 34.0393 135.71 34.0393 136.135C34.0393 138.657 33.5386 140.78 32.6424 142.407C32.4502 142.759 32.2322 143.096 31.9903 143.416C31.8725 143.571 31.7504 143.723 31.6242 143.865C31.498 144.008 31.3676 144.143 31.2329 144.286C30.7374 144.77 30.1696 145.174 29.5499 145.484L29.348 145.585C29.2049 145.648 29.0618 145.711 28.9272 145.766C28.7926 145.82 28.5696 145.896 28.3886 145.946H28.3424C28.2372 145.976 28.1278 145.997 28.0226 146.022L27.8333 146.068C27.6439 146.106 27.4504 146.14 27.2568 146.161H27.1979C26.8906 146.196 26.5816 146.214 26.2723 146.215H26.0324C25.8641 146.215 25.6916 146.215 25.5191 146.186H25.456C25.2793 146.186 25.0984 146.148 24.9217 146.123L23.0872 147.178C24.105 147.472 25.1582 147.624 26.2176 147.632C26.3606 147.632 26.4995 147.632 26.6383 147.632C26.7772 147.632 27.0212 147.632 27.1979 147.603L27.5219 147.556C27.7281 147.527 27.9427 147.497 28.1194 147.46L28.4139 147.392L28.5317 147.359C28.7126 147.313 28.8935 147.266 29.0703 147.212L29.1965 147.17C33.0758 145.837 35.4489 141.806 35.4489 136.152C35.4531 128.392 30.9552 119.223 24.8123 113.582Z" fill="#455A64"/>
<path d="M17.0195 110.047L17.1037 110.018L17.2005 109.967L20.0489 108.336C20.2336 108.219 20.383 108.053 20.4815 107.858C20.58 107.663 20.6239 107.444 20.6085 107.226V94.2705L17.7432 95.9268V108.857C17.7642 109.107 17.7055 109.356 17.5754 109.57C17.4454 109.784 17.2507 109.951 17.0195 110.047Z" fill="#37474F"/>
<path d="M13.584 108.336C14.273 108.337 14.9604 108.401 15.6373 108.529C15.7206 108.551 15.8079 108.553 15.8921 108.535C15.9763 108.517 16.0551 108.479 16.1222 108.425C16.1893 108.371 16.2428 108.303 16.2784 108.224C16.314 108.146 16.3308 108.06 16.3273 107.974V106.688C15.2978 106.696 14.2772 106.88 13.3105 107.234V108.353C13.4031 108.336 13.4915 108.336 13.584 108.336Z" fill="#37474F"/>
<path d="M13.9451 109.757C14.2775 109.757 14.6183 109.803 14.9634 109.853C15.3004 109.903 15.6347 109.971 15.9647 110.055C15.9843 110.053 16.0041 110.053 16.0236 110.055H16.0615C16.1705 110.083 16.2817 110.102 16.3939 110.11H16.4234C16.5144 110.116 16.6058 110.116 16.6968 110.11H16.7473C16.8335 110.098 16.9181 110.077 16.9998 110.047C17.231 109.951 17.4256 109.784 17.5557 109.57C17.6857 109.356 17.7445 109.107 17.7235 108.857V95.9267L16.3098 95.0859V107.962C16.3132 108.048 16.2964 108.133 16.2608 108.212C16.2252 108.29 16.1717 108.359 16.1046 108.413C16.0375 108.467 15.9587 108.504 15.8745 108.522C15.7903 108.54 15.703 108.538 15.6197 108.517C14.9428 108.389 14.2554 108.324 13.5665 108.323C13.4739 108.323 13.3855 108.323 13.293 108.323V109.736H13.5917C13.7348 109.761 13.8315 109.753 13.9451 109.757Z" fill="#455A64"/>
<path d="M18.6361 88.0321C18.1144 87.7336 17.3991 87.7756 16.6081 88.2338C15.7698 88.7759 15.0723 89.5089 14.5727 90.3727C14.0731 91.2364 13.7858 92.2063 13.7344 93.2026C13.7344 94.1232 14.0584 94.7706 14.5759 95.0648L26.0371 101.673L30.0764 94.6487L18.6361 88.0321Z" fill="#27DEBF"/>
<path d="M18.6361 88.0321C18.1144 87.7336 17.3991 87.7756 16.6081 88.2338C15.7698 88.7759 15.0723 89.5089 14.5727 90.3727C14.0731 91.2364 13.7858 92.2063 13.7344 93.2026C13.7344 94.1232 14.0584 94.7706 14.5759 95.0648L26.0371 101.673L30.0764 94.6487L18.6361 88.0321Z" fill="#B18F04"/>
<path d="M14.0836 91.4583C13.8662 92.0149 13.748 92.6054 13.7344 93.2028C13.7344 94.1234 14.0584 94.7708 14.5759 95.065L26.0371 101.673L27.4635 99.193L14.0836 91.4583Z" fill="#BF9D13"/>
<path d="M25.209 99.8108C25.2613 98.8163 25.5485 97.8484 26.0473 96.9862C26.5461 96.124 27.2421 95.3921 28.0785 94.8505C28.8611 94.3965 29.5722 94.3502 30.0897 94.6403C30.6072 94.9303 30.9312 95.5819 30.9312 96.5025C30.8774 97.4967 30.5899 98.4642 30.0921 99.3267C29.5943 100.189 28.9002 100.922 28.0659 101.467C27.2707 101.921 26.5554 101.967 26.0379 101.665C25.5203 101.362 25.209 100.727 25.209 99.8108Z" fill="#27DEBF"/>
<path d="M25.209 99.8108C25.2613 98.8163 25.5485 97.8484 26.0473 96.9862C26.5461 96.124 27.2421 95.3921 28.0785 94.8505C28.8611 94.3965 29.5722 94.3502 30.0897 94.6403C30.6072 94.9303 30.9312 95.5819 30.9312 96.5025C30.8774 97.4967 30.5899 98.4642 30.0921 99.3267C29.5943 100.189 28.9002 100.922 28.0659 101.467C27.2707 101.921 26.5554 101.967 26.0379 101.665C25.5203 101.362 25.209 100.727 25.209 99.8108Z" fill="#F8CD1E"/>
<path d="M26.4502 99.0878C26.4809 98.5235 26.6443 97.9744 26.9272 97.485C27.2101 96.9956 27.6046 96.5798 28.0785 96.2713C28.234 96.1334 28.4292 96.0479 28.6361 96.0272C28.8431 96.0064 29.0513 96.0514 29.2312 96.1557C29.4111 96.26 29.5535 96.4183 29.6381 96.6081C29.7227 96.7979 29.7453 97.0096 29.7026 97.2129C29.6717 97.7761 29.5086 98.3242 29.2265 98.8127C28.9444 99.3013 28.5511 99.7166 28.0785 100.025C27.9226 100.161 27.728 100.246 27.5218 100.266C27.3157 100.286 27.1083 100.241 26.9289 100.138C26.7494 100.035 26.6067 99.878 26.5209 99.6897C26.4351 99.5013 26.4103 99.2909 26.4502 99.0878Z" fill="#37474F"/>
<path d="M28.9405 96.7929C28.9485 96.5395 28.889 96.2885 28.768 96.0657C28.5239 96.0798 28.287 96.1534 28.0779 96.2801C27.604 96.5886 27.2096 97.0044 26.9266 97.4937C26.6437 97.9831 26.4803 98.5322 26.4496 99.0965C26.4437 99.3497 26.5031 99.6002 26.6221 99.8238C26.8676 99.8098 27.1059 99.7362 27.3164 99.6094C27.7895 99.3004 28.1831 98.8844 28.4653 98.3951C28.7475 97.9057 28.9103 97.3568 28.9405 96.7929Z" fill="#263238"/>
<path d="M93.1905 45.0284C92.673 44.7299 91.9535 44.772 91.1625 45.2302C90.3275 45.7734 89.6325 46.5056 89.134 47.3675C88.6354 48.2293 88.3472 49.1965 88.293 50.1905C88.293 51.1111 88.6212 51.7543 89.1345 52.0528L100.592 58.661L104.635 51.6366L93.1905 45.0284Z" fill="#27DEBF"/>
<path d="M93.1905 45.0284C92.673 44.7299 91.9535 44.772 91.1625 45.2302C90.3275 45.7734 89.6325 46.5056 89.134 47.3675C88.6354 48.2293 88.3472 49.1965 88.293 50.1905C88.293 51.1111 88.6212 51.7543 89.1345 52.0528L100.592 58.661L104.635 51.6366L93.1905 45.0284Z" fill="#B18F04"/>
<path d="M88.6302 48.4502C88.4171 49.0065 88.3004 49.5951 88.2852 50.1905C88.2852 51.1111 88.6133 51.7543 89.1267 52.0528L100.584 58.661L102.014 56.1766L88.6302 48.4502Z" fill="#BF9D13"/>
<path d="M99.7656 56.8072C99.8194 55.813 100.107 54.8455 100.605 53.983C101.103 53.1204 101.797 52.3872 102.631 51.8426C103.418 51.3928 104.129 51.3466 104.646 51.6367C105.164 51.9267 105.488 52.5783 105.488 53.4989C105.436 54.4933 105.148 55.4613 104.65 56.3235C104.151 57.1857 103.455 57.9176 102.618 58.4592C101.827 58.9174 101.112 58.9595 100.59 58.661C100.069 58.3626 99.7656 57.7194 99.7656 56.8072Z" fill="#27DEBF"/>
<path d="M99.7656 56.8072C99.8194 55.813 100.107 54.8455 100.605 53.983C101.103 53.1204 101.797 52.3872 102.631 51.8426C103.418 51.3928 104.129 51.3466 104.646 51.6367C105.164 51.9267 105.488 52.5783 105.488 53.4989C105.436 54.4933 105.148 55.4613 104.65 56.3235C104.151 57.1857 103.455 57.9176 102.618 58.4592C101.827 58.9174 101.112 58.9595 100.59 58.661C100.069 58.3626 99.7656 57.7194 99.7656 56.8072Z" fill="#F8CD1E"/>
<path d="M101.008 56.0924C101.038 55.5285 101.201 54.9796 101.483 54.4903C101.766 54.0009 102.159 53.5849 102.632 53.276C102.796 53.1583 102.988 53.0856 103.189 53.0649C103.39 53.0443 103.592 53.0764 103.777 53.1582C103.945 53.2743 104.079 53.4336 104.164 53.6193C104.249 53.8051 104.283 54.0103 104.261 54.2134C104.231 54.7778 104.068 55.3272 103.785 55.8167C103.502 56.3061 103.107 56.7218 102.632 57.0298C102.477 57.1672 102.282 57.2523 102.076 57.273C101.87 57.2938 101.662 57.2492 101.482 57.1455C101.303 57.0418 101.16 56.8844 101.075 56.6954C100.99 56.5064 100.967 56.2955 101.008 56.0924Z" fill="#37474F"/>
<path d="M103.498 53.789C103.503 53.5358 103.444 53.2854 103.325 53.0618C103.08 53.0757 102.841 53.1493 102.631 53.2762C102.157 53.5849 101.763 54.0008 101.48 54.4901C101.197 54.9794 101.033 55.5284 101.002 56.0926C100.996 56.3464 101.057 56.5974 101.179 56.8199C101.423 56.8057 101.66 56.7321 101.869 56.6055C102.343 56.2967 102.737 55.8809 103.02 55.3915C103.303 54.9022 103.467 54.3532 103.498 53.789Z" fill="#263238"/>
<path d="M102.015 21.1516L89.6445 14.0053C88.8524 12.4976 87.9017 11.0786 86.8086 9.77222C93.448 10.9282 98.699 14.947 102.015 21.1516Z" fill="#27DEBF"/>
<path opacity="0.2" d="M102.015 21.1516L89.6445 14.0053C88.8524 12.4976 87.9017 11.0786 86.8086 9.77222C93.448 10.9282 98.699 14.947 102.015 21.1516Z" fill="black"/>
<path d="M99.7246 51.9144C100.354 48.5722 100.679 45.18 100.697 41.7793C100.697 18.7893 84.5439 9.46975 64.6171 20.9668C44.6904 32.4639 28.5335 60.4142 28.5335 83.4042C28.5141 86.4385 28.8416 89.4652 29.5096 92.4253L24.8561 95.1115C24.2768 92.1142 23.9949 89.0672 24.0146 86.0147C24.0146 60.141 42.1995 28.6722 64.6298 15.7374C87.06 2.8027 105.241 13.2867 105.241 39.1646C105.233 42.5447 104.952 45.9187 104.399 49.2534L99.7709 51.9312" fill="#37474F"/>
<path d="M99.729 51.914C100.355 48.57 100.679 45.1766 100.697 41.7747C100.697 26.612 93.6702 17.3933 83.1641 16.1785C86.4501 20.5587 88.3351 26.8096 88.3351 34.6747C88.315 38.0667 87.9911 41.4502 87.3674 44.7846L99.729 51.914Z" fill="#263238"/>
<path d="M92.5964 12.4919C85.309 8.70859 75.4592 9.49047 64.6165 15.7456C42.182 28.6719 24.0013 60.1365 24.0013 86.0186C23.9814 89.0683 24.2633 92.1126 24.8429 95.1069L12.5022 87.9859C11.9103 84.9972 11.6185 81.9568 11.6313 78.9101C11.6313 53.0323 29.8119 21.5677 52.2464 8.62872C63.451 2.16345 73.5911 1.55391 80.9416 5.78702C82.8266 6.85476 89.7648 10.8609 92.5964 12.4919Z" fill="#455A64"/>
<path d="M18.5387 84.4631C18.1947 84.4509 17.8598 84.3494 17.5668 84.1689C16.9648 83.7762 16.4632 83.2481 16.1023 82.6268C15.7413 82.0056 15.531 81.3086 15.4883 80.5915C15.4883 79.6331 15.9848 79.0151 16.7505 79.0151C17.0942 79.0257 17.4292 79.1257 17.7225 79.3052C18.3259 79.7014 18.8281 80.2332 19.189 80.858C19.5499 81.4828 19.7595 82.1833 19.801 82.9035C19.7968 83.841 19.3003 84.4631 18.5387 84.4631Z" fill="#263238"/>
<path d="M94.4307 10.0075C90.8381 8.08219 86.8144 7.10141 82.738 7.1574C76.5403 7.1574 69.9303 9.15835 63.0847 13.1014C47.2434 22.236 33.4218 40.3413 26.2269 59.4302L13.8652 52.284C21.0601 33.195 34.9028 15.0898 50.723 5.95514C57.5687 2.01208 64.1871 0.00272218 70.3763 0.00272218C74.608 -0.0550761 78.7792 1.00963 82.4645 3.08823C84.421 4.24004 91.8136 8.49417 94.4307 10.0075Z" fill="#27DEBF"/>
<path d="M94.4307 10.0075C90.8381 8.08219 86.8144 7.10141 82.738 7.1574C76.5403 7.1574 69.9303 9.15835 63.0847 13.1014C47.2434 22.236 33.4218 40.3413 26.2269 59.4302L13.8652 52.284C21.0601 33.195 34.9028 15.0898 50.723 5.95514C57.5687 2.01208 64.1871 0.00272218 70.3763 0.00272218C74.608 -0.0550761 78.7792 1.00963 82.4645 3.08823C84.421 4.24004 91.8136 8.49417 94.4307 10.0075Z" fill="#F8CD1E"/>
<path d="M102.008 21.1473C98.0446 13.7531 91.3168 9.43587 82.7377 9.43587C76.9439 9.43587 70.7126 11.3317 64.2246 15.0772C48.6989 24.0311 35.1633 41.8463 28.2041 60.5737L26.2266 59.4303C33.4214 40.3414 47.2431 22.2361 63.0844 13.1015C69.93 9.15843 76.5484 7.15747 82.7377 7.15747C91.767 7.15747 98.9408 11.42 103.354 18.8227L102.008 21.1473Z" fill="#BF9D13"/>
<path d="M167.008 23.541L164.946 30.33C164.777 30.2031 164.588 30.105 164.387 30.0399C164.035 29.9334 163.659 29.9336 163.307 30.0405C162.955 30.1474 162.643 30.3562 162.41 30.6404C162.177 30.9246 162.033 31.2716 161.997 31.6373C161.961 32.0031 162.035 32.3712 162.208 32.6952C162.382 33.0192 162.648 33.2845 162.973 33.4575C163.297 33.6305 163.666 33.7035 164.032 33.6672C164.398 33.6309 164.745 33.487 165.029 33.2536C165.313 33.0202 165.522 32.7079 165.628 32.3561L167.479 26.2734L174.098 26.5172L172.276 32.5495C172.108 32.4209 171.918 32.3228 171.716 32.2595C171.364 32.153 170.989 32.1532 170.637 32.2601C170.285 32.367 169.972 32.5757 169.739 32.8599C169.506 33.1442 169.362 33.4911 169.327 33.8569C169.291 34.2226 169.364 34.5908 169.538 34.9148C169.712 35.2388 169.977 35.504 170.302 35.677C170.627 35.8501 170.995 35.923 171.361 35.8867C171.727 35.8504 172.074 35.7065 172.358 35.4731C172.643 35.2398 172.851 34.9275 172.958 34.5757L176 24.4868L167.008 23.541Z" fill="#F8EBBB"/>
<path d="M129.983 74.8259L127.921 81.6149C127.753 81.4863 127.564 81.3881 127.361 81.3248C127.009 81.2183 126.634 81.2186 126.282 81.3255C125.93 81.4323 125.617 81.6411 125.384 81.9253C125.151 82.2095 125.008 82.5565 124.972 82.9222C124.936 83.288 125.009 83.6562 125.183 83.9801C125.357 84.3041 125.623 84.5694 125.947 84.7424C126.272 84.9154 126.64 84.9884 127.006 84.9521C127.372 84.9158 127.719 84.7719 128.004 84.5385C128.288 84.3051 128.496 83.9928 128.603 83.6411L130.454 77.5583L137.072 77.8021L135.251 83.8344C135.082 83.7059 134.893 83.6077 134.691 83.5444C134.339 83.4379 133.963 83.4381 133.611 83.545C133.259 83.6519 132.947 83.8606 132.714 84.1449C132.481 84.4291 132.337 84.776 132.301 85.1418C132.265 85.5075 132.339 85.8757 132.513 86.1997C132.686 86.5237 132.952 86.7889 133.277 86.962C133.601 87.135 133.97 87.2079 134.336 87.1716C134.702 87.1353 135.049 86.9914 135.333 86.7581C135.617 86.5247 135.826 86.2124 135.932 85.8606L138.97 75.7718L129.983 74.8259Z" fill="#F8EBBB"/>
<path d="M134.368 56.5211C134.785 56.3176 135.239 56.2044 135.702 56.189C136.322 56.1769 136.94 56.2476 137.541 56.3992C138.337 56.618 139.153 56.7588 139.977 56.8196C140.39 56.8477 140.805 56.7922 141.196 56.6564C141.587 56.5206 141.947 56.3073 142.253 56.0293C141.771 56.0742 141.285 56.0096 140.831 55.8401C139.741 55.4198 138.866 54.3058 137.886 53.6836C136.426 52.763 134.983 52.8429 133.207 53.2885C133.207 54.7976 133.178 56.3151 133.161 57.8285L133.123 61.389C133.123 61.5025 133.068 63.0074 133.068 63.0074C132.656 62.8012 132.204 62.6892 131.743 62.6795C131.238 62.6746 130.744 62.8192 130.322 63.0951C129.9 63.3711 129.569 63.7659 129.371 64.2297C129.174 64.6935 129.119 65.2054 129.212 65.7006C129.306 66.1958 129.545 66.6521 129.898 67.0117C130.252 67.3713 130.704 67.6181 131.198 67.7208C131.692 67.8235 132.205 67.7776 132.673 67.5887C133.141 67.3999 133.542 67.0767 133.826 66.6601C134.109 66.2434 134.263 65.752 134.267 65.248L134.368 56.5211Z" fill="#F8EBBB"/>
<path d="M156.88 53.4625C157.337 53.3815 157.806 53.3987 158.256 53.513C158.854 53.6742 159.428 53.9116 159.965 54.2192C160.67 54.6496 161.416 55.0114 162.19 55.2995C162.58 55.44 162.994 55.5004 163.407 55.4773C163.821 55.4542 164.225 55.348 164.597 55.165C164.12 55.0761 163.67 54.8807 163.28 54.5933C162.35 53.8997 161.82 52.5756 161.05 51.7054C159.906 50.4149 158.5 50.087 156.666 50.0239C156.245 51.4784 155.799 52.9245 155.366 54.3747L154.343 57.7881L153.838 59.3225C153.5 59.0112 153.096 58.7799 152.656 58.6457C152.173 58.4992 151.658 58.4991 151.175 58.6453C150.692 58.7915 150.264 59.0775 149.944 59.4671C149.624 59.8568 149.427 60.3325 149.377 60.8341C149.328 61.3357 149.429 61.8406 149.667 62.285C149.905 62.7294 150.269 63.0933 150.715 63.3306C151.16 63.5679 151.665 63.6679 152.167 63.6181C152.669 63.5683 153.145 63.3707 153.535 63.0506C153.924 62.7304 154.21 62.302 154.356 61.8195L156.88 53.4625Z" fill="#F8EBBB"/>
<path d="M150.092 27.0006C150.29 26.5391 150.584 26.1249 150.954 25.7858C151.454 25.3382 152.012 24.9593 152.612 24.6592C153.423 24.2731 154.196 23.81 154.918 23.2762C155.277 23.0076 155.578 22.6692 155.803 22.2812C156.028 21.8933 156.172 21.4638 156.226 21.0188C155.861 21.394 155.415 21.6815 154.922 21.8595C153.74 22.2799 152.221 21.9814 150.976 22.1622C149.12 22.4354 147.984 23.5158 146.844 25.1426C147.917 26.4037 148.948 27.6648 150.02 28.9259L152.515 31.8685C152.595 31.961 153.614 33.2389 153.614 33.2389C153.131 33.3659 152.683 33.5985 152.301 33.9199C151.882 34.2729 151.578 34.7419 151.427 35.2676C151.275 35.7934 151.283 36.3523 151.449 36.8736C151.615 37.3948 151.933 37.8551 152.361 38.1962C152.789 38.5373 153.309 38.7438 153.855 38.7897C154.4 38.8356 154.948 38.7187 155.427 38.4539C155.906 38.1891 156.296 37.7883 156.547 37.3021C156.798 36.8159 156.899 36.2662 156.838 35.7226C156.776 35.1789 156.555 34.6657 156.201 34.2478L150.092 27.0006Z" fill="#F8EBBB"/>
</svg>
