<svg width="28" height="28" viewBox="0 0 28 28" fill="none" xmlns="http://www.w3.org/2000/svg">
<circle cx="14" cy="14" r="14" fill="#D7143A"/>
<path d="M16.9416 7H14.9525C12.9373 7 10.9039 8.4881 10.9039 11.8127C10.9039 13.5347 11.6337 14.8759 12.9716 15.6387L10.5229 20.0708C10.4068 20.2804 10.4037 20.518 10.5147 20.7063C10.6231 20.8902 10.8213 21 11.0446 21H12.2833C12.5647 21 12.7841 20.864 12.8893 20.6257L15.1852 16.135H15.3528V20.4403C15.3528 20.7437 15.6088 21 15.9119 21H16.994C17.3338 21 17.5711 20.7627 17.5711 20.4229V7.61258C17.5711 7.25192 17.3123 7 16.9416 7ZM15.3528 14.1402H15.0572C13.9111 14.1402 13.2269 13.2046 13.2269 11.6376C13.2269 9.68909 14.0912 8.99486 14.9001 8.99486H15.3528V14.1402Z" fill="white"/>
</svg>
