<svg width="28" height="28" viewBox="0 0 28 28" fill="none" xmlns="http://www.w3.org/2000/svg">
<circle cx="14" cy="14" r="14" fill="white"/>
<path d="M8.98918 15.8776L8.36263 18.2166L6.07258 18.2651C5.3882 16.9957 5 15.5434 5 14C5 12.5076 5.36295 11.1002 6.00631 9.86099H6.0068L8.04559 10.2348L8.9387 12.2613C8.75177 12.8063 8.64989 13.3913 8.64989 14C8.64996 14.6607 8.76963 15.2937 8.98918 15.8776Z" fill="#FBBB00"/>
<path d="M22.8402 12.3187C22.9436 12.8631 22.9975 13.4254 22.9975 14C22.9975 14.6444 22.9297 15.2729 22.8007 15.8791C22.3625 17.9422 21.2177 19.7437 19.6319 21.0185L19.6314 21.018L17.0634 20.887L16.7 18.6182C17.7523 18.0011 18.5747 17.0353 19.0079 15.8791H14.1953V12.3187H19.0781H22.8402Z" fill="#518EF8"/>
<path d="M19.6355 21.018L19.636 21.0185C18.0937 22.2582 16.1344 23 14.0016 23C10.5742 23 7.59434 21.0843 6.07422 18.2651L8.99082 15.8777C9.75086 17.9061 11.7076 19.3501 14.0016 19.3501C14.9877 19.3501 15.9114 19.0835 16.7041 18.6182L19.6355 21.018Z" fill="#28B446"/>
<path d="M19.7462 7.07197L16.8306 9.45894C16.0102 8.94615 15.0404 8.64992 14.0015 8.64992C11.6556 8.64992 9.6622 10.1601 8.94023 12.2613L6.0083 9.86098H6.00781C7.50568 6.97307 10.5231 5 14.0015 5C16.1852 5 18.1875 5.77787 19.7462 7.07197Z" fill="#F14336"/>
</svg>
