<svg width="28" height="28" viewBox="0 0 28 28" fill="none" xmlns="http://www.w3.org/2000/svg">
<g clip-path="url(#clip0_887:4193)">
<path d="M14 28.0001C21.732 28.0001 28.0001 21.732 28.0001 14C28.0001 6.26803 21.732 0 14 0C6.26803 0 0 6.26803 0 14C0 21.732 6.26803 28.0001 14 28.0001Z" fill="#D42428"/>
<path d="M23.8979 4.099C29.3653 9.56683 29.3658 18.4315 23.8979 23.8993C18.4306 29.3667 9.56548 29.3669 4.09766 23.8993L23.8979 4.099Z" fill="#CC202D"/>
<path d="M21.3244 11.2984C21.3244 10.1248 20.3736 9.17352 19.2006 9.17352H9.23663C8.06388 9.17352 7.11328 10.125 7.11328 11.2984V16.9963C7.11328 18.17 8.06406 19.1212 9.23663 19.1212H19.2005C20.3737 19.1212 21.3242 18.1697 21.3242 16.9963V11.2984H21.3244ZM12.7973 16.5511V11.1994L16.8558 13.8754L12.7973 16.5511Z" fill="white"/>
</g>
<defs>
<clipPath id="clip0_887:4193">
<rect width="28" height="28" fill="white"/>
</clipPath>
</defs>
</svg>
