<svg width="22" height="12" viewBox="0 0 22 12" fill="none" xmlns="http://www.w3.org/2000/svg">
<path d="M18.7246 5.13378C19.0138 4.7544 19.2434 4.45 19.413 4.22034C20.6342 2.57278 21.1636 1.52031 21.0014 1.06146L20.9377 0.953992C20.8954 0.889444 20.7858 0.830167 20.6095 0.776513C20.4329 0.722897 20.207 0.714329 19.9318 0.749724L16.8821 0.771551C16.8115 0.764418 16.7409 0.766084 16.6703 0.776513C16.5997 0.787407 16.5539 0.798339 16.5326 0.808768C16.5113 0.8197 16.4937 0.828462 16.4797 0.835595L16.4374 0.86785C16.4021 0.889211 16.3633 0.926932 16.321 0.980819C16.2786 1.03467 16.2431 1.09708 16.2151 1.16896C15.8833 2.03565 15.5057 2.84164 15.082 3.58664C14.8208 4.0308 14.5806 4.41611 14.3621 4.74161C14.1432 5.06784 13.9596 5.30774 13.8114 5.46145C13.6632 5.61544 13.5289 5.73926 13.409 5.83207C13.2888 5.92554 13.1972 5.9647 13.1338 5.95047C13.0702 5.93624 13.0101 5.92201 12.9538 5.90728C12.8549 5.843 12.7753 5.75543 12.7155 5.64416C12.6554 5.5334 12.615 5.39361 12.5937 5.22516C12.5726 5.05695 12.56 4.91176 12.5567 4.7898C12.553 4.66811 12.5548 4.49633 12.5621 4.27399C12.5691 4.05189 12.5726 3.90174 12.5726 3.82273C12.5726 3.55082 12.578 3.25521 12.5886 2.93635C12.5991 2.61771 12.608 2.36502 12.615 2.17875C12.622 1.99274 12.6255 1.79556 12.6255 1.58773C12.6255 1.38036 12.6131 1.21711 12.5882 1.09875C12.5635 0.980819 12.5263 0.866222 12.4772 0.754958C12.4277 0.644159 12.3554 0.558017 12.26 0.497307C12.1646 0.436325 12.0465 0.388175 11.9053 0.352083C11.5309 0.26594 11.0544 0.219923 10.4757 0.212363C9.16257 0.198601 8.31894 0.284471 7.94483 0.47048C7.79659 0.549488 7.66237 0.65672 7.54244 0.792912C7.41525 0.950697 7.39772 1.0368 7.4896 1.05056C7.91327 1.11511 8.21307 1.26933 8.38959 1.51275L8.4532 1.64158C8.50252 1.73505 8.55188 1.89973 8.60144 2.13602C8.6508 2.37235 8.68259 2.6338 8.69684 2.92041C8.73214 3.44331 8.73214 3.89081 8.69684 4.26356C8.66154 4.63628 8.62811 4.92622 8.59632 5.13359C8.56449 5.34143 8.51681 5.50964 8.45343 5.63846C8.38981 5.76776 8.34752 5.84653 8.32624 5.87522C8.30496 5.90368 8.28742 5.9217 8.2734 5.92887C8.18151 5.96446 8.08634 5.98249 7.98747 5.98249C7.88855 5.98249 7.76858 5.93217 7.62737 5.8318C7.48613 5.73193 7.33953 5.59384 7.188 5.41826C7.03602 5.24296 6.86509 4.9974 6.67429 4.68206C6.48371 4.36723 6.28588 3.99448 6.08129 3.56481L5.912 3.25304C5.80609 3.0528 5.66133 2.76073 5.47779 2.37755C5.29424 1.99437 5.13172 1.62378 4.99074 1.2653C4.93415 1.11511 4.84949 1.00051 4.73659 0.921505L4.68375 0.88925C4.64845 0.860755 4.59186 0.830168 4.51423 0.798107C4.43636 0.765852 4.35548 0.742591 4.27059 0.72813L1.36911 0.749492C1.07263 0.749492 0.871548 0.817839 0.765641 0.953992L0.723308 1.01831C0.701913 1.05436 0.691406 1.11178 0.691406 1.19032C0.691406 1.26933 0.712687 1.3659 0.755019 1.48027C1.17869 2.49052 1.63934 3.46471 2.13689 4.40282C2.63472 5.34143 3.06706 6.09732 3.43414 6.67031C3.80123 7.24376 4.17534 7.78423 4.55671 8.2929C4.93809 8.80157 5.19036 9.1273 5.31381 9.27039C5.43725 9.41395 5.53429 9.52145 5.60494 9.59282L5.86963 9.85094C6.03892 10.0228 6.28795 10.2287 6.61625 10.4688C6.94452 10.7089 7.3079 10.9452 7.70703 11.1777C8.10571 11.4107 8.57007 11.6003 9.09942 11.7474C9.6288 11.8945 10.1441 11.9535 10.6454 11.9246H11.8632C12.1104 11.9032 12.2973 11.8247 12.4244 11.6883L12.4667 11.6346C12.4947 11.5919 12.5214 11.5255 12.5461 11.436C12.5707 11.3466 12.5834 11.2479 12.5834 11.1407C12.5761 10.8327 12.5993 10.5547 12.6521 10.3079C12.705 10.0607 12.765 9.87467 12.8322 9.74894C12.8993 9.62388 12.975 9.51808 13.0599 9.43194C13.1446 9.34579 13.2044 9.29431 13.2399 9.27628C13.2752 9.25872 13.3036 9.24616 13.3246 9.23856C13.4939 9.18134 13.6933 9.2369 13.9229 9.40511C14.1523 9.57383 14.3677 9.78116 14.569 10.0284C14.77 10.2756 15.0118 10.5529 15.2943 10.8612C15.5765 11.1691 15.8236 11.3983 16.0355 11.5487L16.2473 11.678C16.3885 11.7637 16.5719 11.8424 16.798 11.9144C17.0239 11.9858 17.2217 12.0038 17.3909 11.968L20.1018 11.9248C20.3701 11.9248 20.5784 11.8802 20.7267 11.7905C20.8749 11.7015 20.9631 11.6024 20.9914 11.4951C21.0194 11.3877 21.0213 11.2664 20.9967 11.13C20.972 10.994 20.9472 10.8991 20.9227 10.8455C20.8979 10.7919 20.8749 10.7468 20.8536 10.7112C20.5006 10.0666 19.8265 9.27481 18.8311 8.33647L18.8098 8.31511L18.7993 8.30422L18.7888 8.29375H18.7782C18.3262 7.85672 18.0404 7.56298 17.9205 7.41233C17.7017 7.12622 17.6521 6.83604 17.7723 6.54234C17.8564 6.31962 18.174 5.85033 18.7246 5.13378Z" fill="#8C8C8C"/>
</svg>
