<svg width="12" height="19" viewBox="0 0 12 19" fill="none" xmlns="http://www.w3.org/2000/svg">
<path d="M4.99161 12.8167C3.58089 12.6696 2.30892 12.3222 1.21991 11.4704C1.08479 11.3645 0.945277 11.2623 0.821968 11.144C0.345313 10.6862 0.297285 10.1619 0.674455 9.62156C0.997117 9.15919 1.53876 9.0355 2.10175 9.30099C2.21077 9.35245 2.31464 9.41668 2.41412 9.48567C4.44367 10.8802 7.23175 10.9187 9.26893 9.54837C9.47076 9.39362 9.6865 9.26745 9.93655 9.20303C10.4227 9.0782 10.8761 9.25677 11.137 9.68216C11.4351 10.168 11.4313 10.6421 11.0641 11.0193C10.5007 11.5976 9.82315 12.0159 9.07034 12.3079C8.3585 12.5838 7.57881 12.7228 6.80713 12.815C6.92358 12.9418 6.97846 13.0041 7.05127 13.0773C8.09911 14.1301 9.15152 15.1785 10.1959 16.2345C10.5518 16.5943 10.6261 17.0405 10.4302 17.459C10.2159 17.9164 9.73643 18.2174 9.26626 18.1852C8.96837 18.1646 8.73605 18.0163 8.52964 17.8084C7.7389 17.0127 6.9333 16.2316 6.15856 15.4209C5.9331 15.1851 5.82466 15.2297 5.62569 15.4344C4.83018 16.2534 4.02171 17.0597 3.20848 17.8615C2.84332 18.2216 2.40879 18.2864 1.9853 18.0807C1.53514 17.8625 1.24869 17.403 1.2708 16.9412C1.28604 16.6288 1.43966 16.3902 1.65407 16.1762C2.69104 15.1407 3.72516 14.1026 4.75966 13.0654C4.82808 12.9965 4.89193 12.9233 4.99161 12.8167Z" fill="#8C8C8C"/>
<path d="M5.85091 9.21036C3.33422 9.20178 1.27056 7.11544 1.28523 4.59475C1.29972 2.04623 3.36472 -0.00752185 5.90618 -0.000470176C8.45279 0.00639092 10.4968 2.08969 10.4841 4.66469C10.4711 7.18023 8.39314 9.21912 5.85091 9.21036ZM8.13813 4.60085C8.13375 3.34927 7.13698 2.35288 5.88788 2.35174C4.6283 2.35041 3.62258 3.3649 3.6323 4.62791C3.64164 5.87472 4.64698 6.86405 5.89951 6.85948C7.14823 6.85509 8.14232 5.85223 8.13813 4.60085Z" fill="#8C8C8C"/>
</svg>
